<?xml version="1.0" encoding="UTF-8" standalone="no"?>
<!-- Created with Inkscape (http://www.inkscape.org/) -->

<svg
   width="57mm"
   height="57mm"
   viewBox="0 0 57.000004 57.000001"
   version="1.1"
   id="svg1"
   sodipodi:docname="biloxibranch.svg"
   inkscape:version="1.4.2 (ebf0e940, 2025-05-08)"
   xmlns:inkscape="http://www.inkscape.org/namespaces/inkscape"
   xmlns:sodipodi="http://sodipodi.sourceforge.net/DTD/sodipodi-0.dtd"
   xmlns="http://www.w3.org/2000/svg"
   xmlns:svg="http://www.w3.org/2000/svg">
  <sodipodi:namedview
     id="namedview1"
     pagecolor="#ffffff"
     bordercolor="#000000"
     borderopacity="0.25"
     inkscape:showpageshadow="2"
     inkscape:pageopacity="0.0"
     inkscape:pagecheckerboard="0"
     inkscape:deskcolor="#d1d1d1"
     inkscape:document-units="mm"
     inkscape:zoom="1.1961229"
     inkscape:cx="31.351292"
     inkscape:cy="130.00336"
     inkscape:window-width="1472"
     inkscape:window-height="890"
     inkscape:window-x="0"
     inkscape:window-y="38"
     inkscape:window-maximized="1"
     inkscape:current-layer="svg1" />
  <defs
     id="defs1" />
  <circle
     style="fill:#6d6d6d;fill-opacity:0;stroke:none;stroke-width:1.78667;stroke-linecap:square;stroke-dasharray:none;stroke-opacity:1;paint-order:stroke fill markers"
     id="path109-9-1"
     cx="28.499956"
     cy="28.49996"
     r="28.5" />
  <g
     id="g48"
     transform="matrix(2.8069631,0,0,2.8069631,-1819.6319,-3625.719)">
    <g
       id="g130-5-5"
       transform="matrix(1,0,0,0.9965758,-228.29111,399.47942)"
       style="fill:#ffee00;fill-opacity:1">
      <path
         id="rect80-3-4-3-9-6-7-1-9-0-0-3-8-9-4"
         style="fill:#ffee00;fill-opacity:1;stroke-width:0.266091;stroke-linecap:round;stroke-linejoin:round;paint-order:stroke fill markers"
         d="m 882.24175,908.87733 c 0.41483,-0.009 0.54417,-0.12068 0.66404,-0.25208 1.41445,-1.55052 2.02024,-2.98791 4.80031,-1.69445 -1.61528,1.44528 -1.90865,2.93304 -4.59855,2.25724 -0.18216,-0.0458 -0.6576,-0.18617 -0.8658,-0.31071 z" />
      <path
         id="rect80-3-7-5-9-7-5-68-2-4-0-56-0-3-9-1"
         style="fill:#ffee00;fill-opacity:1;stroke-width:0.232129;stroke-linecap:round;stroke-linejoin:round;paint-order:stroke fill markers"
         d="m 885.06927,903.88571 c 0.26847,-0.0497 0.41665,-0.14029 0.49312,-0.25065 1.14717,-1.65545 1.27898,-2.84698 3.8488,-2.417 -1.10675,1.78912 -1.64743,3.31318 -3.62672,2.88296 -0.14713,-0.032 -0.55134,-0.16108 -0.7152,-0.21531 z" />
      <path
         id="rect80-3-7-2-2-9-0-9-5-4-9-0-8-1-6-6-8"
         style="fill:#ffee00;fill-opacity:1;stroke-width:0.272253;stroke-linecap:round;stroke-linejoin:round;paint-order:stroke fill markers"
         d="m 892.07531,910.5282 c -0.21153,-0.13019 -0.43962,-0.30311 -0.5595,-0.40844 -2.47434,-2.17396 -1.11808,-2.30231 -1.5449,-5.40488 2.66346,1.39695 2.00027,2.63943 1.93671,5.32842 -0.003,0.13224 -0.004,0.25905 0.16769,0.4849 z" />
      <path
         id="rect80-3-7-2-0-909-9-3-5-4-6-1-3-6-3-4-4-8"
         style="fill:#ffee00;fill-opacity:1;stroke-width:0.196917;stroke-linecap:round;stroke-linejoin:round;paint-order:stroke fill markers"
         d="m 892.18086,903.34608 c -0.11942,-0.071 -0.40335,-0.24657 -0.5048,-0.31748 -1.76236,-1.23181 -0.91641,-2.45895 -1.06652,-3.93582 2.1589,0.823 1.42456,2.06155 1.39612,3.87664 -0.001,0.0893 3.7e-4,0.18869 0.1752,0.37666 z" />
      <path
         id="rect80-3-7-2-0-9-80-1-9-4-7-7-5-2-7-0-3-8-3"
         style="fill:#ffee00;fill-opacity:1;stroke-width:0.196917;stroke-linecap:round;stroke-linejoin:round;paint-order:stroke fill markers"
         d="m 887.28862,898.0345 c 0.28507,0.13794 0.45629,0.0564 0.5395,-0.017 1.69183,-1.49257 2.41783,-1.66838 3.71908,-0.81446 -1.34783,0.9042 -1.9299,1.89818 -3.61097,1.21134 -0.11618,-0.0475 -0.36492,-0.16708 -0.64761,-0.37983 z" />
      <path
         id="rect80-3-7-2-7-5-7-8-9-9-5-9-8-4-8-2-9-5"
         style="fill:#ffee00;fill-opacity:1;stroke-width:0.191649;stroke-linecap:round;stroke-linejoin:round;paint-order:stroke fill markers"
         d="m 887.98013,914.19555 c -0.22766,-0.0975 -0.46221,-0.3037 -0.60634,-0.43007 -1.25975,-1.10443 -0.98011,-2.38647 -0.12592,-3.87134 1.55916,1.24222 0.58853,2.13349 0.60313,3.88201 9.8e-4,0.11657 -0.0179,0.25515 0.12913,0.4194 z" />
      <path
         style="baseline-shift:baseline;display:inline;overflow:visible;vector-effect:none;fill:#ffee00;fill-opacity:1;stroke-linecap:square;paint-order:stroke fill markers;enable-background:accumulate;stop-color:#000000"
         d="m 892.2742,895.96197 -0.0918,0.0957 c 0,0 -0.28458,0.3017 -0.74805,1.07812 -0.23884,0.40011 -0.2989,0.69057 -0.38281,0.95703 -0.0839,0.26646 -0.19007,0.51941 -0.54101,0.91211 -0.72572,0.81209 -0.71098,0.88404 -1.22266,2.16406 -0.27186,0.68006 -0.0687,1.16185 0.1582,1.64844 0.22688,0.48659 0.47842,1.00089 0.39258,1.88477 -0.0427,0.43983 -0.15637,0.7126 -0.30469,0.90039 -0.14831,0.18779 -0.35652,0.39592 -0.57625,0.489 -0.43946,0.18618 -0.99024,0.19664 -1.3632,0.76686 -0.36844,0.56334 -0.23326,1.17051 -0.17918,1.66883 0.0541,0.49832 0.0258,0.88156 -0.27394,1.2882 -0.30357,0.41184 -0.71839,0.6075 -1.06641,0.70117 -0.38261,0.10299 -0.85938,0.25195 -0.85938,0.25195 l -0.12695,0.0391 0.0781,0.25195 0.12695,-0.0391 c 0,0 0.47534,-0.1473 0.84961,-0.24805 0.38688,-0.10413 0.86284,-0.32853 1.21094,-0.80078 0.36167,-0.49065 0.29801,-1.01914 0.24414,-1.51563 -0.0539,-0.49648 -0.0996,-0.9663 0.21875,-1.45312 0.3139,-0.47994 0.78684,-0.56362 1.26367,-0.76563 0.23841,-0.101 0.47644,-0.23562 0.66211,-0.4707 0.18567,-0.23507 0.31327,-0.56441 0.35937,-1.03906 0.0918,-0.9451 -0.19236,-1.53762 -0.41797,-2.02149 -0.2256,-0.48386 -0.41781,-1.01587 -0.17685,-1.61864 0.51392,-1.28562 0.48001,-1.10074 1.20029,-1.90675 0.37206,-0.41634 0.50629,-0.72387 0.59571,-1.00781 0.0894,-0.28393 0.13723,-0.5335 0.35742,-0.90234 0.45453,-0.76148 0.71289,-1.0293 0.71289,-1.0293 l 0.0918,-0.0957 z"
         id="path81-3-2-6-1-6-5-8-2-0-6-2-5-2" />
      <g
         id="g11-4-0-5-1-2"
         style="fill:#ffee00;fill-opacity:1"
         transform="translate(-47.925017,30.465881)">
        <path
           id="rect80-38-0-9-3-5-5-9-9-8-4-6-7-6"
           style="fill:#ffee00;fill-opacity:1;stroke-width:0.27774;stroke-linecap:round;stroke-linejoin:round;paint-order:stroke fill markers"
           d="m 928.86111,884.39801 c 0.34495,-0.058 0.49397,-0.29175 0.59711,-0.47463 1.21712,-2.15797 0.89117,-3.87973 3.90174,-3.65817 -1.05438,2.38309 -1.09469,4.05898 -3.44572,4.21591 -0.24161,0.0161 -0.55599,0.0453 -1.05313,-0.0831 z" />
      </g>
    </g>
    <path
       id="rect80-3-4-3-9-6-7-1-9-0-0-3-8-9-1-6"
       style="fill:#000000;fill-opacity:0.1;stroke-width:0.265635;stroke-linecap:round;stroke-linejoin:round;paint-order:stroke fill markers"
       d="m 657.69098,1302.8075 c -1.40953,-0.069 -2.01547,1.027 -3.0763,2.1859 -0.11987,0.1309 -0.24924,0.2422 -0.66404,0.2511 0.30673,0.1001 0.68405,0.104 0.86041,0.075 2.70871,-0.438 1.9079,-2.2422 4.60385,-2.0154 -0.33747,-0.1565 -0.6406,-0.2694 -0.91932,-0.3504 -0.0142,0 -0.0298,-0.01 -0.0439,-0.014 -0.2785,-0.078 -0.5305,-0.1216 -0.76067,-0.1328 z" />
    <path
       id="rect80-3-7-5-9-7-5-68-2-4-0-56-0-3-9-6-7"
       style="fill:#000000;fill-opacity:0.1;stroke-width:0.231731;stroke-linecap:round;stroke-linejoin:round;paint-order:stroke fill markers"
       d="m 660.25197,1297.5254 c -1.75085,-0.032 -1.97934,1.0549 -2.98069,2.4949 -0.0765,0.11 -0.22453,0.2006 -0.493,0.2502 6.4e-4,2e-4 10e-4,3e-4 0.002,5e-4 0.23504,0.075 0.58657,0.016 0.73174,-0.027 1.97184,-0.5793 1.16247,-2.0794 3.60701,-2.6324 -0.32416,-0.054 -0.60749,-0.079 -0.86713,-0.086 z" />
    <path
       id="rect80-3-7-2-2-9-0-9-5-4-9-0-8-1-6-6-2-8"
       style="fill:#000000;fill-opacity:0.1;stroke-width:0.271786;stroke-linecap:round;stroke-linejoin:round;paint-order:stroke fill markers"
       d="m 661.67961,1301.0964 c 1.91038,2.1317 0.18737,3.0855 1.69189,5.3759 0.0724,0.1102 0.23944,0.2862 0.41289,0.4175 -0.17169,-0.2251 -0.17094,-0.3514 -0.16794,-0.4832 0.0554,-2.3368 0.56531,-3.5776 -1.07074,-4.78 -0.24367,-0.1774 -0.52732,-0.3532 -0.8661,-0.5302 z" />
    <path
       id="rect80-3-7-2-0-909-9-3-5-4-6-1-3-6-3-4-4-1-41"
       style="fill:#000000;fill-opacity:0.1;stroke-width:0.19658;stroke-linecap:round;stroke-linejoin:round;paint-order:stroke fill markers"
       d="m 662.31827,1295.4935 c 1.32885,1.6931 0.35561,2.3377 0.97152,3.5249 0.0973,0.1874 0.33307,0.5505 0.59996,0.7136 -0.17483,-0.1873 -0.17618,-0.2862 -0.17518,-0.3752 0.023,-1.4662 0.5094,-2.555 -0.45682,-3.3517 -0.0232,-0.019 -0.0503,-0.036 -0.0749,-0.055 -0.0529,-0.04 -0.10639,-0.08 -0.16743,-0.1184 -0.0709,-0.044 -0.15059,-0.087 -0.23203,-0.1291 -0.0283,-0.015 -0.0519,-0.03 -0.0816,-0.044 -0.11716,-0.057 -0.24449,-0.112 -0.38344,-0.1648 z" />
    <path
       id="rect80-3-7-2-0-9-80-1-9-4-7-7-5-2-7-0-3-8-9-71"
       style="fill:#000000;fill-opacity:0.1;stroke-width:0.19658;stroke-linecap:round;stroke-linejoin:round;paint-order:stroke fill markers"
       d="m 661.9534,1293.1011 c -0.67907,-0.026 -1.35902,0.3912 -2.41639,1.3208 -0.0832,0.073 -0.25443,0.1546 -0.5395,0.017 0.56377,0.3418 1.05916,0.2099 1.32756,0.1452 1.14025,-0.2748 1.08211,-1.1789 2.93109,-0.9741 -0.16265,-0.1064 -0.31637,-0.1965 -0.46405,-0.2703 -0.29537,-0.1475 -0.56709,-0.2285 -0.83871,-0.2387 z" />
    <path
       id="rect80-3-7-2-7-5-7-8-9-9-5-9-8-4-8-2-9-7-8"
       style="fill:#000000;fill-opacity:0.1;stroke-width:0.191321;stroke-linecap:round;stroke-linejoin:round;paint-order:stroke fill markers"
       d="m 658.95682,1306.2579 c 0.79229,2.0455 -0.5968,2.2223 0.45889,3.977 0.0485,0.08 0.15041,0.211 0.27337,0.3096 -0.14703,-0.1637 -0.12821,-0.3019 -0.12919,-0.4181 -0.0128,-1.5232 0.72734,-2.3934 -0.12765,-3.4153 -5.2e-4,-6e-4 -10e-4,0 -0.002,0 -0.008,-0.01 -0.0187,-0.019 -0.0269,-0.029 -0.0541,-0.063 -0.11209,-0.1252 -0.1788,-0.1891 -0.0801,-0.076 -0.16784,-0.1535 -0.26665,-0.2321 -4.4e-4,-3e-4 -10e-4,-6e-4 -0.002,-9e-4 z" />
    <path
       id="rect80-38-0-9-3-5-5-9-9-8-4-6-7-2-7"
       style="fill:#000000;fill-opacity:0.1;stroke-width:0.277264;stroke-linecap:round;stroke-linejoin:round;paint-order:stroke fill markers"
       d="m 656.60623,1307.073 c -0.15864,10e-4 -0.30713,0.01 -0.44442,0.024 -1.9711,0.2099 -1.85474,1.7588 -2.91972,3.6406 -0.10313,0.1822 -0.25191,0.415 -0.59686,0.4728 0.35997,0 0.60611,-0.062 0.76016,-0.14 2.24089,-1.1421 1.33588,-3.1797 3.73879,-3.9786 -0.19246,-0.014 -0.36984,-0.019 -0.53795,-0.019 z" />
  </g>
</svg>
